<?xml version="1.0" encoding="utf-8"?>
<!-- Generator: Adobe Illustrator 26.5.0, SVG Export Plug-In . SVG Version: 6.00 Build 0)  -->
<svg version="1.1" xmlns="http://www.w3.org/2000/svg" xmlns:xlink="http://www.w3.org/1999/xlink" x="0px" y="0px"
	 viewBox="0 0 221.29 171.21" style="enable-background:new 0 0 221.29 171.21;" xml:space="preserve">
<style type="text/css">
	.st0{fill:#F4F4F4;}
	.st1{fill:#1A402E;}
	.st2{fill:#275942;}
	.st3{fill:#0D0D0D;}
	.st4{fill:#64A57B;}
	.st5{fill:#83D899;}
	.st6{fill:#345B40;}
</style>
<g id="BG">
</g>
<g id="Layer_1">
	<g>
		<g>
			<g>
				<g>
					<g>
						<g>
							<path class="st6" d="M58.91,63.35c2.93,0.86,4.33,3.86,3.22,7.64c-1.1,3.77-3.93,5.51-3.93,5.51l-4.94-0.47l0.03-0.34
								c4.52-0.38,7.74-2.01,8.63-5.05c0.72-2.48-0.4-4.74-2.64-5.39c-5.32-1.55-6.74,9.99-12.98,8.17
								c-2.76-0.81-4.04-4.01-2.99-7.63c0.51-1.76,1.95-3.58,3.08-4.78l4.94,0.47l-0.03,0.34c-4.04,0.55-7.02,1.73-7.83,4.5
								c-0.69,2.37,0.48,4.62,2.53,5.22C51.01,73,52.51,61.47,58.91,63.35z"/>
							<path class="st6" d="M58.23,76.6l-5.07-0.48l0.05-0.52l0.08-0.01c4.76-0.4,7.71-2.12,8.54-4.98c0.7-2.41-0.38-4.63-2.57-5.27
								c-2.49-0.73-4.11,1.5-5.83,3.86c-1.89,2.6-3.84,5.28-7.15,4.31c-2.84-0.83-4.13-4.09-3.06-7.75c0.56-1.91,2.18-3.84,3.1-4.82
								l0.03-0.04l5.08,0.48L51.4,61.9l-0.08,0.01c-4.65,0.64-7.04,2-7.75,4.43c-0.32,1.11-0.24,2.25,0.23,3.2
								c0.46,0.94,1.26,1.61,2.23,1.89c2.28,0.67,3.84-1.48,5.48-3.76c1.94-2.68,3.95-5.45,7.42-4.44l0,0
								c1.49,0.43,2.59,1.4,3.19,2.78c0.61,1.41,0.65,3.13,0.1,4.99c-1.1,3.77-3.95,5.55-3.97,5.56L58.23,76.6z M53.38,75.94
								l4.8,0.45c0.29-0.19,2.84-1.94,3.86-5.43c0.53-1.81,0.5-3.49-0.09-4.85c-0.58-1.33-1.64-2.25-3.06-2.67l0,0
								c-3.33-0.97-5.3,1.74-7.2,4.36c-1.69,2.33-3.28,4.54-5.7,3.83c-1.03-0.3-1.86-1.01-2.35-2c-0.5-1-0.58-2.19-0.24-3.35
								c0.73-2.5,3.15-3.91,7.83-4.56l0.02-0.16l-4.79-0.45c-0.91,0.98-2.48,2.86-3.02,4.7c-1.04,3.55,0.19,6.71,2.92,7.51
								c3.17,0.93,5.09-1.7,6.93-4.24c1.76-2.42,3.42-4.69,6.04-3.93c2.3,0.67,3.44,2.99,2.71,5.52c-0.85,2.92-3.84,4.69-8.63,5.11
								L53.38,75.94z"/>
						</g>
						<g>
							<path class="st6" d="M69.07,55.38c1.45-2.18,0.99-5.1-1.04-6.75l0.19-0.29l3.88,3.09l-8.22,12.4l-0.29-0.19
								c0.33-0.49,0.43-1.08,0.32-1.62c-0.11-0.54-0.42-1.04-0.92-1.37l-11.51-7.63c-0.99-0.66-2.33-0.39-2.99,0.61l-0.29-0.19
								l8.03-12.11l4.35,2.37l-0.19,0.29l0,0c-2.31-1.24-5.17-0.52-6.62,1.66l-3.02,4.56l6.09,4.03c0.73,0.48,1.71,0.28,2.19-0.44
								l1.09-1.64c0.96-1.44,0.56-3.39-0.88-4.35l0.19-0.29l5.51,3.65l-0.19,0.29c-1.44-0.96-3.39-0.56-4.35,0.88l-1.09,1.64
								c-0.48,0.73-0.28,1.71,0.44,2.19l6.1,4.05L69.07,55.38z"/>
							<path class="st6" d="M63.9,63.97l-0.45-0.3l0.06-0.08c0.3-0.46,0.41-1.01,0.3-1.54c-0.11-0.54-0.42-1-0.88-1.3l-11.51-7.63
								c-0.94-0.62-2.22-0.37-2.85,0.58l-0.05,0.08l-0.45-0.3l0.06-0.08L56.2,41.2l0.08,0.04l4.45,2.43l-0.32,0.48l-0.08-0.08
								c-2.27-1.21-5.05-0.51-6.48,1.64l-2.97,4.48l6,3.98c0.68,0.45,1.6,0.26,2.05-0.42l1.09-1.64c0.45-0.68,0.61-1.49,0.45-2.28
								c-0.16-0.8-0.62-1.48-1.3-1.93l-0.08-0.05l0.3-0.45l0.08,0.06l5.59,3.71l-0.3,0.45l-0.08-0.06
								c-0.68-0.45-1.49-0.61-2.28-0.45c-0.8,0.16-1.48,0.62-1.93,1.3l-1.09,1.64c-0.22,0.33-0.3,0.73-0.22,1.11
								c0.08,0.39,0.3,0.72,0.63,0.94l6.02,3.99l3.16-4.76c1.43-2.15,0.99-4.99-1.02-6.61l-0.07-0.06l0.3-0.45l4.04,3.21l-0.05,0.08
								L63.9,63.97z M63.72,63.61l0.12,0.08l8.12-12.24l-3.72-2.96l-0.08,0.12c2.03,1.69,2.46,4.61,0.99,6.82l-3.27,4.93l-0.08-0.06
								l-6.1-4.05c-0.37-0.25-0.63-0.63-0.72-1.07c-0.09-0.44,0-0.89,0.25-1.26l1.09-1.64c0.48-0.72,1.21-1.21,2.05-1.38
								c0.81-0.16,1.64-0.02,2.35,0.42l0.08-0.12l-5.34-3.54l-0.08,0.12c0.68,0.48,1.14,1.18,1.3,2c0.17,0.85,0,1.71-0.47,2.43
								l-1.09,1.64c-0.51,0.77-1.56,0.98-2.33,0.47l-6.17-4.09l0.06-0.08l3.02-4.56c1.47-2.21,4.32-2.95,6.67-1.74l0.08-0.12
								l-4.18-2.28l-7.93,11.96l0.12,0.08c0.7-0.97,2.06-1.22,3.07-0.55l11.51,7.63c0.5,0.33,0.84,0.84,0.96,1.43
								C64.11,62.56,64.01,63.13,63.72,63.61z"/>
						</g>
						<g>
							<path class="st6" d="M87.04,39.34l0.21,0.27l-5.27,4l-0.21-0.27c1-0.76,0.94-2.28-0.12-2.95l-4.97-3.14
								c-0.66-0.42-1.52-0.01-1.63,0.76l-1.2,8.76c-0.05,0.32,0.05,0.63,0.23,0.87c0.22,0.29,0.57,0.48,0.97,0.46
								c0.16,0,0.31-0.03,0.45-0.08c0.14-0.05,0.28-0.12,0.4-0.22l0.21,0.27l-3.67,2.79l-0.21-0.27c0.78-0.59,1.11-1.62,0.82-2.56
								l-4.53-14.77c-0.06-0.18-0.14-0.34-0.25-0.48c-0.49-0.65-1.46-0.83-2.16-0.29l-0.21-0.27l3.29-2.5l15.31,9.73
								c0.39,0.25,0.84,0.36,1.28,0.34C86.23,39.77,86.67,39.62,87.04,39.34z M74.09,35.61l-5.58-3.54l4.19,13.66
								c0.15,0.5,0.88,0.44,0.95-0.08l1.16-8.5C74.9,36.55,74.62,35.94,74.09,35.61z"/>
							<path class="st6" d="M72.41,51l-0.33-0.43l0.08-0.06c0.75-0.57,1.07-1.55,0.79-2.45l-4.53-14.77
								c-0.05-0.17-0.13-0.32-0.23-0.45c-0.22-0.3-0.57-0.5-0.94-0.55c-0.39-0.06-0.77,0.04-1.08,0.28l-0.08,0.06l-0.33-0.43
								l3.43-2.6l0.06,0.04l15.31,9.73c0.37,0.23,0.79,0.35,1.22,0.33c0.43-0.02,0.84-0.17,1.19-0.43l0.08-0.06l0.33,0.43
								l-5.43,4.13l-0.33-0.43l0.08-0.06c0.45-0.34,0.69-0.86,0.67-1.42c-0.02-0.56-0.31-1.06-0.79-1.36l-4.97-3.14
								c-0.28-0.18-0.62-0.2-0.92-0.06c-0.3,0.14-0.51,0.42-0.55,0.75l-1.2,8.76c-0.04,0.28,0.03,0.56,0.21,0.79
								c0.21,0.28,0.53,0.43,0.88,0.42c0.15,0,0.29-0.03,0.42-0.08c0.13-0.05,0.26-0.12,0.38-0.2l0.08-0.06l0.33,0.43L72.41,51z
								 M72.36,50.6l0.09,0.12l3.51-2.67l-0.09-0.12c-0.11,0.07-0.23,0.13-0.35,0.18c-0.15,0.05-0.31,0.08-0.48,0.09
								c-0.42,0.01-0.8-0.17-1.05-0.5c-0.21-0.27-0.29-0.61-0.25-0.94l1.2-8.76c0.05-0.4,0.3-0.73,0.67-0.9
								c0.36-0.17,0.78-0.14,1.12,0.07l4.97,3.14c0.53,0.34,0.85,0.89,0.88,1.52c0.03,0.6-0.22,1.15-0.67,1.53l0.09,0.12l5.12-3.88
								l-0.09-0.12c-0.36,0.25-0.78,0.39-1.22,0.41c-0.47,0.01-0.94-0.11-1.34-0.36l-15.25-9.7l-3.16,2.4l0.09,0.12
								c0.34-0.23,0.75-0.32,1.15-0.26c0.42,0.06,0.81,0.29,1.07,0.63c0.11,0.15,0.2,0.32,0.26,0.51L73.14,48
								C73.44,48.94,73.12,49.97,72.36,50.6z M73.17,46.18c-0.22,0-0.47-0.12-0.56-0.41l-4.27-13.92l5.81,3.68
								c0.55,0.35,0.86,1,0.77,1.65l-1.16,8.5c-0.04,0.32-0.3,0.49-0.53,0.51C73.2,46.18,73.18,46.18,73.17,46.18z M68.69,32.31
								l4.11,13.4c0.07,0.22,0.26,0.29,0.4,0.27c0.14-0.01,0.32-0.11,0.35-0.33l1.16-8.5c0.08-0.57-0.19-1.14-0.68-1.45L68.69,32.31
								z"/>
						</g>
						<g>
							<path class="st6" d="M98.35,30.72c1.02,2.88-0.6,5.77-4.31,7.09c-3.7,1.32-6.77,0.04-6.77,0.04l-2.51-4.28l0.3-0.17
								c2.96,3.44,6.17,5.1,9.15,4.04c2.43-0.86,3.61-3.1,2.83-5.3c-1.86-5.23-12.05,0.38-14.22-5.74
								c-0.96-2.71,0.88-5.63,4.44-6.89c1.73-0.61,4.04-0.51,5.68-0.3l2.51,4.28l-0.3,0.17c-2.82-2.95-5.52-4.68-8.24-3.71
								c-2.33,0.83-3.46,3.1-2.75,5.11C85.89,29.96,96.11,24.43,98.35,30.72z"/>
							<path class="st6" d="M90.59,38.5c-1.98,0-3.34-0.55-3.36-0.56l-0.03-0.01l-0.02-0.03l-2.56-4.36l0.45-0.27l0.05,0.06
								c3.11,3.62,6.24,5.01,9.04,4.01c2.37-0.84,3.53-3.02,2.77-5.17c-0.87-2.44-3.62-2.45-6.54-2.47
								c-3.21-0.01-6.53-0.02-7.69-3.27c-0.99-2.79,0.9-5.74,4.5-7.02c1.87-0.67,4.39-0.48,5.72-0.31l0.05,0.01l0.02,0.04l2.56,4.36
								l-0.45,0.26l-0.05-0.06c-3.24-3.4-5.75-4.53-8.13-3.69c-1.09,0.39-1.96,1.12-2.46,2.06c-0.49,0.92-0.57,1.96-0.23,2.92
								c0.79,2.24,3.45,2.24,6.26,2.25c3.31,0.01,6.73,0.01,7.94,3.42c0.52,1.46,0.38,2.92-0.39,4.21c-0.78,1.32-2.16,2.36-3.98,3
								C92.81,38.35,91.62,38.5,90.59,38.5z M87.34,37.76c0.33,0.13,3.23,1.17,6.66-0.05c1.78-0.63,3.12-1.64,3.88-2.92
								c0.74-1.25,0.87-2.65,0.37-4.05l0,0c-1.16-3.27-4.51-3.28-7.75-3.29c-2.88-0.01-5.6-0.01-6.44-2.38
								c-0.36-1.01-0.27-2.1,0.24-3.08c0.52-0.99,1.43-1.75,2.57-2.16c2.46-0.87,5.01,0.26,8.29,3.68l0.14-0.08l-2.44-4.15
								c-1.33-0.17-3.77-0.34-5.58,0.3c-3.49,1.24-5.33,4.08-4.38,6.76c1.11,3.12,4.36,3.13,7.5,3.14c2.99,0.01,5.81,0.02,6.72,2.6
								c0.8,2.26-0.41,4.54-2.89,5.42c-2.87,1.02-6.05-0.37-9.2-4.01L84.9,33.6L87.34,37.76z"/>
						</g>
						<g>
							<path class="st6" d="M120.27,25.3c-0.01,1.76-0.54,3.68-1.48,5.1c-0.94,1.43-2.31,2.47-3.65,3.35
								c-0.42,0.28-0.88,0.5-1.36,0.69c-2.09,0.82-4.43,0.82-6.53,0.02c-0.5-0.19-0.98-0.42-1.42-0.71
								c-1.34-0.89-2.71-1.92-3.65-3.35c-0.94-1.42-1.47-3.34-1.48-5.1c0.01-1.76,0.54-3.68,1.48-5.1c0.94-1.43,2.31-2.47,3.65-3.35
								c0.44-0.28,0.92-0.52,1.42-0.7c2.1-0.8,4.44-0.8,6.53,0.02c0.47,0.19,0.93,0.41,1.36,0.69c1.34,0.89,2.71,1.92,3.65,3.35
								C119.73,21.62,120.26,23.54,120.27,25.3z M117.95,25.3c0-1.43-0.22-2.86-0.72-4.26c-0.52-1.38-1.27-2.7-2.49-3.63
								c-0.05-0.04-0.1-0.07-0.15-0.11c-2.45-1.72-5.73-1.72-8.18,0c-0.05,0.04-0.1,0.07-0.15,0.11c-1.22,0.93-1.97,2.25-2.49,3.63
								c-0.5,1.4-0.72,2.83-0.72,4.26c0,1.43,0.22,2.86,0.72,4.26c0.52,1.38,1.27,2.7,2.49,3.63c0.05,0.04,0.1,0.07,0.15,0.11
								c2.45,1.72,5.73,1.72,8.18,0c0.05-0.04,0.1-0.07,0.15-0.11c1.22-0.94,1.97-2.25,2.49-3.63
								C117.73,28.16,117.95,26.72,117.95,25.3z"/>
							<path class="st6" d="M110.51,35.15c-1.11,0-2.22-0.2-3.29-0.61c-0.53-0.2-1.01-0.44-1.43-0.71c-1.27-0.84-2.7-1.9-3.68-3.38
								c-0.93-1.4-1.49-3.33-1.5-5.15c0.01-1.82,0.57-3.75,1.5-5.15c0.97-1.48,2.41-2.54,3.68-3.38c0.42-0.27,0.9-0.51,1.43-0.71
								c2.15-0.82,4.49-0.81,6.6,0.02c0.5,0.2,0.96,0.43,1.37,0.7c1.27,0.84,2.71,1.9,3.68,3.38c0.93,1.41,1.49,3.33,1.5,5.15v0
								c-0.01,1.82-0.57,3.75-1.5,5.15c-0.97,1.48-2.41,2.54-3.68,3.38c-0.41,0.27-0.87,0.5-1.37,0.7
								C112.76,34.95,111.64,35.15,110.51,35.15z M110.51,15.64c-1.09,0-2.18,0.2-3.22,0.59c-0.52,0.2-0.99,0.43-1.4,0.7
								c-1.25,0.83-2.67,1.87-3.62,3.32c-0.91,1.38-1.45,3.26-1.46,5.04c0.01,1.78,0.56,3.67,1.46,5.04
								c0.96,1.46,2.37,2.5,3.62,3.32c0.41,0.26,0.88,0.5,1.4,0.7c2.1,0.8,4.39,0.79,6.46-0.02c0.49-0.19,0.94-0.42,1.34-0.68
								c1.25-0.83,2.67-1.87,3.62-3.32c0.91-1.37,1.45-3.26,1.46-5.04c-0.01-1.78-0.56-3.67-1.46-5.04
								c-0.95-1.45-2.36-2.49-3.62-3.32c-0.4-0.26-0.85-0.49-1.34-0.68C112.71,15.84,111.61,15.64,110.51,15.64z M110.49,34.68
								c-1.45,0-2.91-0.44-4.15-1.31c-0.05-0.04-0.1-0.07-0.15-0.11c-1.07-0.82-1.9-2.02-2.52-3.68c-0.49-1.35-0.73-2.79-0.73-4.3
								c0-1.5,0.25-2.95,0.73-4.29c0.63-1.66,1.45-2.86,2.53-3.68c0.05-0.04,0.1-0.07,0.15-0.11c2.48-1.74,5.82-1.74,8.3,0
								c0.05,0.04,0.1,0.07,0.15,0.11c1.07,0.82,1.9,2.02,2.52,3.68c0.49,1.35,0.73,2.79,0.73,4.29c0,1.5-0.25,2.95-0.73,4.29
								c-0.63,1.66-1.45,2.86-2.52,3.68c-0.05,0.04-0.1,0.07-0.15,0.11C113.4,34.25,111.94,34.68,110.49,34.68z M110.49,16.11
								c-1.41,0-2.83,0.42-4.03,1.27c-0.05,0.03-0.1,0.07-0.14,0.1c-1.05,0.81-1.84,1.95-2.46,3.59c-0.48,1.32-0.72,2.74-0.72,4.22
								c0,1.48,0.24,2.9,0.72,4.23c0.61,1.62,1.42,2.79,2.46,3.59c0.05,0.03,0.09,0.07,0.14,0.1c2.41,1.7,5.65,1.69,8.07,0
								c0.05-0.04,0.1-0.07,0.15-0.1c1.05-0.81,1.84-1.95,2.46-3.59c0.48-1.32,0.72-2.74,0.72-4.22c0-1.48-0.24-2.9-0.72-4.22
								c-0.61-1.62-1.42-2.79-2.46-3.59c-0.05-0.04-0.1-0.07-0.14-0.1C113.32,16.53,111.9,16.11,110.49,16.11z"/>
						</g>
						<g>
							<path class="st6" d="M141.1,25.33l-4.93,12.89c-0.43,1.12,0.13,2.37,1.25,2.79l-0.12,0.32l-4.69-1.79l-2.9-19.34
								c-0.04-0.28-0.28-0.51-0.59-0.51c-0.26-0.01-0.48,0.17-0.58,0.41l-5.08,13.29c-0.42,1.1,0.13,2.33,1.23,2.75l-0.12,0.32
								l-4.32-1.65l0.12-0.32l0.02,0.01c1.1,0.42,2.33-0.13,2.75-1.23l4.94-12.91c0.42-1.11-0.13-2.35-1.24-2.78l0.12-0.32
								l4.69,1.79l2.9,19.32c0.03,0.22,0.18,0.4,0.38,0.47c0.16,0.06,0.32,0.05,0.46-0.01c0.14-0.06,0.26-0.18,0.32-0.34l5.08-13.28
								c0.42-1.11-0.13-2.35-1.24-2.78l0.12-0.32l4.34,1.66l-0.12,0.32l-0.01,0C142.77,23.66,141.52,24.22,141.1,25.33z"/>
							<path class="st6" d="M137.35,41.46l-4.84-1.85l-0.01-0.06l-2.9-19.34c-0.04-0.24-0.24-0.42-0.49-0.43c0,0-0.01,0-0.01,0
								c-0.2,0-0.39,0.14-0.47,0.34l-5.08,13.29c-0.19,0.51-0.18,1.06,0.04,1.56c0.22,0.5,0.62,0.88,1.13,1.07l0.09,0.04l-0.19,0.51
								l-4.5-1.72l0.19-0.51l0.09,0.04c1.07,0.41,2.24-0.12,2.64-1.17l4.94-12.91c0.2-0.51,0.18-1.07-0.04-1.57
								c-0.22-0.5-0.63-0.88-1.14-1.08l-0.09-0.04l0.19-0.51l4.84,1.85l0.01,0.06l2.9,19.32c0.03,0.18,0.15,0.33,0.32,0.4
								c0.13,0.05,0.26,0.04,0.38-0.01c0.12-0.05,0.22-0.15,0.27-0.28l5.08-13.28c0.2-0.51,0.18-1.07-0.04-1.57
								s-0.63-0.88-1.14-1.08l-0.09-0.04l0.19-0.51l4.53,1.73l-0.19,0.51l-0.09-0.04c-1.07-0.41-2.26,0.12-2.66,1.18l-0.09-0.04
								l0.09,0.04l-4.93,12.89c-0.41,1.06,0.13,2.26,1.19,2.66l0.09,0.04L137.35,41.46z M132.7,39.47l4.54,1.74l0.05-0.14
								c-1.1-0.48-1.65-1.75-1.21-2.88l4.93-12.89c0.43-1.13,1.69-1.71,2.82-1.33l0.05-0.14l-4.16-1.59l-0.05,0.14
								c0.52,0.22,0.93,0.63,1.16,1.15c0.25,0.55,0.26,1.16,0.05,1.72l-5.08,13.28c-0.07,0.18-0.2,0.32-0.37,0.39
								c-0.17,0.08-0.36,0.08-0.54,0.01c-0.24-0.09-0.41-0.3-0.44-0.55l-2.89-19.27l-4.54-1.74l-0.05,0.14
								c1.1,0.48,1.64,1.74,1.21,2.87l-4.94,12.91c-0.43,1.12-1.68,1.7-2.81,1.32l-0.05,0.14l4.13,1.58l0.05-0.14
								c-0.51-0.22-0.92-0.62-1.15-1.14c-0.24-0.54-0.26-1.15-0.05-1.71l5.08-13.29c0.11-0.28,0.37-0.47,0.66-0.47
								c0,0,0.01,0,0.01,0c0.34,0,0.63,0.26,0.69,0.6L132.7,39.47z"/>
						</g>
						<g>
							<path class="st6" d="M157.64,54.94c-2.34,1.97-5.62,1.46-8.15-1.56c-2.53-3.01-2.4-6.33-2.4-6.33l3.13-3.85l0.27,0.22
								c-2.19,3.98-2.62,7.56-0.59,9.98c1.66,1.98,4.16,2.3,5.95,0.8c4.25-3.57-4.57-11.15,0.4-15.33c2.2-1.85,5.58-1.14,8.01,1.75
								c1.18,1.4,1.89,3.61,2.27,5.21l-3.13,3.85l-0.27-0.22c1.78-3.67,2.45-6.8,0.6-9.01c-1.59-1.89-4.11-2.16-5.75-0.79
								C153.99,43.01,162.75,50.65,157.64,54.94z"/>
							<path class="st6" d="M154.53,56.21c-0.3,0-0.61-0.03-0.91-0.08c-1.51-0.27-2.96-1.2-4.21-2.68c-2.52-3.01-2.43-6.36-2.42-6.4
								l0-0.03l0.02-0.03l3.19-3.93l0.41,0.33l-0.04,0.07c-2.3,4.18-2.51,7.59-0.6,9.87c0.79,0.94,1.8,1.53,2.86,1.67
								c1.06,0.14,2.1-0.17,2.95-0.88c1.99-1.67,1.03-4.25,0.02-6.99c-1.11-3.01-2.26-6.13,0.38-8.34c1.09-0.92,2.51-1.25,4.01-0.92
								c1.49,0.32,2.96,1.27,4.14,2.68c1.28,1.52,1.98,3.95,2.29,5.25l0.01,0.05l-3.22,3.96l-0.4-0.33l0.03-0.07
								c2.05-4.22,2.24-6.97,0.61-8.91c-0.74-0.89-1.74-1.45-2.79-1.58c-1.04-0.13-2.04,0.15-2.81,0.81
								c-1.82,1.53-0.9,4.01,0.08,6.65c1.15,3.1,2.34,6.31-0.43,8.63l0,0C156.77,55.81,155.68,56.21,154.53,56.21z M147.19,47.09
								c0,0.35,0.04,3.44,2.38,6.23c1.21,1.45,2.63,2.35,4.09,2.61c1.43,0.26,2.78-0.11,3.92-1.07l0,0c2.66-2.23,1.5-5.38,0.37-8.41
								c-1-2.7-1.95-5.25-0.02-6.87c0.82-0.69,1.87-0.99,2.97-0.85c1.11,0.14,2.14,0.73,2.92,1.65c1.68,2,1.51,4.79-0.55,9.05
								l0.13,0.1l3.03-3.73c-0.31-1.3-1-3.65-2.24-5.12c-1.16-1.38-2.59-2.31-4.03-2.62c-1.43-0.31-2.79,0-3.83,0.88
								c-2.53,2.13-1.41,5.17-0.32,8.12c1.03,2.8,2.01,5.45-0.08,7.21c-0.89,0.75-1.99,1.08-3.1,0.93
								c-1.11-0.15-2.17-0.76-2.99-1.74c-1.96-2.33-1.77-5.8,0.54-10.02l-0.12-0.1L147.19,47.09z"/>
						</g>
						<g>
							<path class="st6" d="M157.43,64.67L157.43,64.67l-0.3,0.16l-2.9-5.54l0.31-0.16c0.28,0.53,0.74,0.89,1.26,1.06
								c0.53,0.16,1.12,0.13,1.64-0.15l12.23-6.4c1.05-0.55,1.46-1.85,0.91-2.91l0.3-0.16l2.9,5.54l-0.3,0.16l0,0
								c-0.55-1.05-1.85-1.46-2.9-0.91l-12.23,6.4C157.29,62.32,156.88,63.62,157.43,64.67z"/>
							<path class="st6" d="M157.09,64.97l-0.05-0.09l-2.95-5.63l0.48-0.25l0.05,0.09c0.25,0.49,0.68,0.84,1.21,1.01
								c0.52,0.16,1.08,0.11,1.57-0.14l12.23-6.4c0.49-0.25,0.84-0.68,1.01-1.21c0.16-0.52,0.11-1.08-0.14-1.57l-0.05-0.09
								l0.48-0.25l0.05,0.09l2.95,5.63l-0.47,0.24l-0.05-0.07c-0.26-0.5-0.69-0.86-1.22-1.02c-0.52-0.16-1.08-0.11-1.56,0.14
								l-12.23,6.4c-1,0.52-1.39,1.76-0.87,2.76l0.07,0.09L157.09,64.97z M154.36,59.33l2.81,5.37l0.13-0.07
								c-0.51-1.08-0.08-2.39,0.99-2.95l12.23-6.4c0.53-0.28,1.14-0.33,1.72-0.15c0.54,0.17,0.99,0.53,1.28,1.02l0.13-0.07
								l-2.81-5.37l-0.13,0.07c0.24,0.51,0.28,1.09,0.11,1.63c-0.18,0.57-0.57,1.04-1.11,1.32l-12.23,6.4
								c-0.53,0.28-1.14,0.33-1.72,0.15c-0.54-0.17-0.99-0.53-1.27-1.02L154.36,59.33z"/>
						</g>
						<g>
							<path class="st6" d="M172.89,76.19c-1.81-0.57-3.17-2.08-3.66-3.91l-0.9-3.4c-0.22-0.84-1.08-1.34-1.93-1.13l-4.99,1.3
								c-1.15,0.3-1.84,1.48-1.54,2.63l0,0l-0.33,0.09l-1.58-6.06l0.33-0.09c0.3,1.15,1.48,1.84,2.63,1.54l13.36-3.47
								c1.15-0.3,1.84-1.48,1.54-2.63l0.33-0.09l2.49,9.6c0.52,2.37-0.72,4.86-3.02,5.65C174.76,76.52,173.8,76.48,172.89,76.19z
								 M174.81,74.44c0.16-0.04,0.32-0.09,0.47-0.15c2.12-0.79,3.18-3.17,2.61-5.35l-1.01-3.9l-7.08,1.84
								c-0.84,0.22-1.35,1.08-1.13,1.93l0.58,2.25c0.4,1.53,1.49,2.85,2.99,3.32C173.04,74.63,173.93,74.66,174.81,74.44z"/>
							<path class="st6" d="M174.37,76.53c-0.49,0-1-0.08-1.51-0.24c-1.8-0.56-3.22-2.09-3.72-3.98l-0.9-3.4
								c-0.21-0.79-1.02-1.26-1.8-1.05l-4.99,1.3c-1.1,0.28-1.76,1.41-1.47,2.51l0.02,0.1l-0.52,0.14l-1.63-6.25l0.53-0.14l0.03,0.1
								c0.28,1.1,1.41,1.76,2.51,1.47l13.36-3.47c1.1-0.28,1.76-1.41,1.47-2.51l-0.02-0.1l0.53-0.14l0.03,0.1l2.49,9.6
								c0.55,2.5-0.78,4.97-3.09,5.77C175.27,76.46,174.83,76.53,174.37,76.53z M166.81,67.6c0.74,0,1.43,0.5,1.63,1.25l0.9,3.4
								c0.48,1.83,1.86,3.3,3.59,3.84h0c0.95,0.3,1.88,0.31,2.69,0.03c2.21-0.76,3.48-3.14,2.96-5.53l-2.47-9.5l-0.14,0.04
								c0.25,1.17-0.47,2.35-1.64,2.65l-13.36,3.47c-1.17,0.3-2.37-0.37-2.72-1.52l-0.14,0.04l1.53,5.87l0.14-0.04
								c-0.25-1.17,0.47-2.35,1.64-2.65l4.99-1.3C166.53,67.62,166.67,67.6,166.81,67.6z M173.63,74.69c-0.48,0-0.96-0.07-1.42-0.22
								c-1.46-0.46-2.63-1.75-3.06-3.39l-0.58-2.25c-0.23-0.9,0.31-1.81,1.2-2.05l7.17-1.86l1.04,4c0.59,2.28-0.58,4.69-2.67,5.47
								c-0.15,0.06-0.31,0.11-0.48,0.15C174.44,74.63,174.03,74.69,173.63,74.69z M176.8,65.16l-6.98,1.81
								c-0.79,0.2-1.27,1.01-1.06,1.8l0.58,2.25c0.41,1.57,1.53,2.82,2.93,3.25c0.81,0.26,1.68,0.28,2.51,0.07l0,0
								c0.16-0.04,0.31-0.09,0.46-0.15c2-0.75,3.12-3.04,2.55-5.23L176.8,65.16z"/>
						</g>
					</g>
				</g>
				<g>
					<g>
						<g>
							<path class="st6" d="M162.48,107.13c-2.94-0.81-4.38-3.8-3.33-7.6c1.05-3.79,3.85-5.56,3.85-5.56l4.94,0.4l-0.03,0.34
								c-4.52,0.45-7.72,2.12-8.56,5.17c-0.69,2.49,0.46,4.73,2.71,5.36c5.35,1.48,6.6-10.08,12.86-8.35
								c2.77,0.77,4.1,3.95,3.1,7.59c-0.49,1.76-1.9,3.6-3.01,4.82l-4.94-0.4l0.03-0.34c4.03-0.61,7-1.83,7.77-4.61
								c0.66-2.38-0.55-4.61-2.6-5.18C170.25,97.37,168.92,108.91,162.48,107.13z"/>
							<path class="st6" d="M175.06,109.4l-5.09-0.41l0.04-0.52l0.08-0.01c4.64-0.7,7.01-2.1,7.68-4.54
								c0.63-2.27-0.48-4.49-2.53-5.06c-2.29-0.63-3.82,1.54-5.43,3.83c-1.9,2.71-3.87,5.5-7.36,4.54
								c-1.49-0.41-2.61-1.36-3.23-2.74c-0.63-1.4-0.69-3.12-0.17-4.98c1.05-3.78,3.87-5.6,3.9-5.62l0.03-0.02l5.08,0.41l-0.04,0.52
								l-0.08,0.01c-4.75,0.47-7.68,2.23-8.47,5.1c-0.33,1.18-0.24,2.35,0.25,3.3c0.48,0.95,1.33,1.63,2.4,1.93
								c2.5,0.69,4.09-1.56,5.77-3.94c1.85-2.62,3.77-5.33,7.09-4.41c1.37,0.38,2.45,1.37,3.03,2.78c0.58,1.41,0.63,3.16,0.13,4.93
								c-0.53,1.92-2.13,3.87-3.03,4.86L175.06,109.4z M170.19,108.8l4.79,0.39c0.9-0.99,2.44-2.89,2.95-4.74
								c0.48-1.73,0.43-3.44-0.13-4.8c-0.56-1.35-1.58-2.3-2.9-2.66c-3.19-0.88-5.06,1.77-6.87,4.34c-1.72,2.44-3.35,4.74-5.99,4.01
								c-1.12-0.31-2.01-1.03-2.52-2.03c-0.51-1-0.6-2.22-0.26-3.45c0.81-2.94,3.77-4.74,8.56-5.23l0.01-0.16l-4.81-0.39
								c-0.29,0.2-2.81,1.98-3.78,5.49c-0.5,1.82-0.45,3.5,0.16,4.85c0.6,1.32,1.67,2.23,3.1,2.63l0,0
								c3.35,0.93,5.28-1.81,7.14-4.46c1.66-2.36,3.22-4.58,5.65-3.91c2.16,0.6,3.33,2.93,2.67,5.3c-0.69,2.51-3.09,3.95-7.77,4.67
								L170.19,108.8z"/>
						</g>
						<g>
							<path class="st6" d="M152.44,115.26c-1.41,2.2-0.92,5.12,1.14,6.73l-0.19,0.29l-3.92-3.03l8.05-12.51l0.29,0.19
								c-0.32,0.5-0.41,1.08-0.29,1.62c0.12,0.54,0.44,1.03,0.94,1.35l11.61,7.46c1,0.64,2.33,0.35,2.98-0.65l0.29,0.19l-7.86,12.22
								l-4.39-2.31l0.19-0.29l0,0c2.32,1.2,5.18,0.44,6.59-1.76l2.96-4.6l-6.14-3.95c-0.73-0.47-1.71-0.26-2.18,0.47l-1.06,1.65
								c-0.94,1.46-0.52,3.4,0.94,4.33l-0.19,0.29l-5.56-3.57l0.19-0.29c1.46,0.94,3.4,0.52,4.33-0.94l1.06-1.66
								c0.47-0.73,0.26-1.71-0.47-2.18l-6.16-3.96L152.44,115.26z"/>
							<path class="st6" d="M165.5,129.25l-0.08-0.04l-4.48-2.36l0.3-0.46l0.08,0.05c2.29,1.19,5.07,0.45,6.46-1.72l2.9-4.52
								l-6.06-3.89c-0.69-0.44-1.6-0.24-2.04,0.44l-1.06,1.65c-0.44,0.68-0.59,1.49-0.41,2.29c0.17,0.79,0.64,1.47,1.33,1.91
								l0.08,0.05l-0.29,0.46l-0.08-0.05l-5.64-3.63l0.29-0.46l0.08,0.05c0.68,0.44,1.5,0.59,2.29,0.41
								c0.79-0.17,1.47-0.64,1.91-1.33l1.06-1.66c0.44-0.69,0.24-1.6-0.44-2.05l-6.07-3.9l-3.09,4.81c-1.39,2.17-0.91,5.01,1.12,6.6
								l0.07,0.06l-0.29,0.46l-4.08-3.15l0.05-0.08l8.1-12.6l0.46,0.29l-0.05,0.08c-0.3,0.46-0.4,1.01-0.28,1.55
								c0.12,0.54,0.44,1,0.9,1.29l11.61,7.46c0.46,0.3,1.01,0.39,1.55,0.28c0.54-0.12,1-0.43,1.29-0.9l0.05-0.08l0.46,0.29
								l-0.05,0.08L165.5,129.25z M161.22,126.77l4.21,2.22l7.76-12.06l-0.12-0.08c-0.33,0.46-0.81,0.78-1.36,0.9
								c-0.59,0.13-1.19,0.02-1.7-0.31l-11.61-7.46c-0.5-0.32-0.85-0.83-0.98-1.42c-0.12-0.56-0.03-1.12,0.26-1.61l-0.12-0.08
								l-7.94,12.35l3.77,2.91l0.08-0.12c-2.05-1.67-2.52-4.57-1.09-6.8l3.2-4.97l0.08,0.05l6.16,3.96c0.78,0.5,1.01,1.54,0.5,2.32
								l-1.06,1.66c-0.47,0.73-1.19,1.23-2.03,1.41c-0.81,0.18-1.64,0.04-2.35-0.39l-0.08,0.12l5.39,3.47l0.08-0.12
								c-0.68-0.47-1.15-1.17-1.33-1.98c-0.18-0.84-0.03-1.71,0.44-2.44l1.06-1.65c0.5-0.78,1.54-1,2.32-0.5l6.22,4l-0.05,0.08
								l-2.96,4.6c-1.44,2.23-4.28,3.01-6.65,1.83L161.22,126.77z"/>
						</g>
						<g>
							<path class="st6" d="M134.68,131.55l-0.21-0.27l5.22-4.08l0.21,0.27c-0.99,0.77-0.9,2.29,0.16,2.95l5.01,3.08
								c0.66,0.41,1.52-0.01,1.62-0.78l1.08-8.78c0.04-0.32-0.06-0.63-0.24-0.86c-0.22-0.29-0.58-0.47-0.97-0.45
								c-0.16,0.01-0.31,0.04-0.45,0.09c-0.14,0.05-0.28,0.13-0.4,0.22l-0.21-0.27l3.63-2.84l0.21,0.27
								c-0.77,0.61-1.09,1.63-0.79,2.57l4.73,14.71c0.06,0.18,0.15,0.34,0.25,0.48c0.5,0.64,1.47,0.81,2.17,0.26l0.21,0.27
								l-3.26,2.54l-15.44-9.53c-0.39-0.24-0.84-0.35-1.29-0.33C135.48,131.11,135.04,131.27,134.68,131.55z M147.67,135.1
								l5.63,3.46l-4.38-13.6c-0.16-0.5-0.88-0.43-0.95,0.09l-1.05,8.51C146.86,134.18,147.15,134.78,147.67,135.1z"/>
							<path class="st6" d="M152.66,141.06l-0.06-0.04l-15.44-9.53c-0.37-0.23-0.79-0.34-1.23-0.31c-0.43,0.02-0.84,0.18-1.19,0.44
								l-0.08,0.06l-0.33-0.43l0.08-0.06l5.3-4.14l0.33,0.43l-0.08,0.06c-0.44,0.35-0.68,0.87-0.65,1.43
								c0.03,0.56,0.32,1.06,0.81,1.35l5.01,3.08c0.28,0.17,0.63,0.19,0.93,0.05c0.3-0.14,0.5-0.43,0.54-0.75l1.08-8.78
								c0.04-0.28-0.04-0.56-0.22-0.79c-0.22-0.28-0.54-0.43-0.89-0.41c-0.15,0.01-0.29,0.04-0.42,0.08
								c-0.14,0.05-0.26,0.12-0.38,0.21l-0.08,0.06l-0.33-0.43l0.08-0.06l3.71-2.9l0.33,0.43l-0.08,0.06
								c-0.74,0.58-1.04,1.57-0.76,2.46l4.73,14.71c0.06,0.17,0.14,0.32,0.24,0.45c0.23,0.29,0.57,0.49,0.95,0.54
								c0.39,0.05,0.77-0.05,1.08-0.29l0.08-0.06l0.33,0.43l-0.08,0.06L152.66,141.06z M136.04,130.99c0.43,0,0.85,0.12,1.22,0.34
								l15.38,9.49l3.13-2.44l-0.09-0.12c-0.34,0.23-0.74,0.33-1.15,0.28c-0.42-0.06-0.82-0.28-1.08-0.61
								c-0.12-0.15-0.21-0.32-0.27-0.51l-4.73-14.71c-0.3-0.94,0-1.98,0.75-2.61l-0.09-0.11l-3.48,2.71l0.09,0.12
								c0.11-0.07,0.22-0.13,0.35-0.18c0.15-0.06,0.31-0.09,0.48-0.1c0.41-0.02,0.8,0.17,1.06,0.49c0.21,0.27,0.3,0.6,0.26,0.94
								l-1.08,8.78c-0.05,0.4-0.29,0.74-0.65,0.91c-0.36,0.17-0.78,0.15-1.12-0.06l-5.01-3.08c-0.54-0.33-0.87-0.88-0.9-1.51
								c-0.03-0.6,0.2-1.15,0.65-1.54l-0.09-0.12l-5.06,3.95l0.09,0.11c0.36-0.26,0.78-0.4,1.22-0.43
								C135.96,130.99,136,130.99,136.04,130.99z M153.48,138.79l-5.86-3.6c-0.56-0.34-0.87-0.98-0.79-1.64l1.05-8.51
								c0.04-0.32,0.29-0.49,0.53-0.51c0.23-0.02,0.51,0.09,0.61,0.4L153.48,138.79z M148.46,124.72c-0.01,0-0.03,0-0.04,0
								c-0.14,0.01-0.32,0.11-0.35,0.34l-1.05,8.51c-0.07,0.57,0.2,1.14,0.7,1.44l5.4,3.32l-4.29-13.34
								C148.77,124.79,148.6,124.72,148.46,124.72z"/>
						</g>
						<g>
							<path class="st6" d="M123.51,140.32c-1.06-2.86,0.52-5.78,4.21-7.15c3.68-1.37,6.76-0.13,6.76-0.13l2.57,4.24l-0.29,0.18
								c-3.01-3.4-6.24-5.01-9.2-3.91c-2.42,0.9-3.56,3.15-2.75,5.34c1.93,5.2,12.04-0.55,14.3,5.53c1,2.7-0.8,5.64-4.34,6.95
								c-1.72,0.64-4.03,0.57-5.67,0.38l-2.57-4.24l0.29-0.18c2.86,2.91,5.58,4.6,8.29,3.59c2.31-0.86,3.42-3.15,2.68-5.14
								C135.98,140.9,125.84,146.58,123.51,140.32z"/>
							<path class="st6" d="M131.28,151.98c-0.85,0-1.62-0.06-2.19-0.13l-0.05-0.01l-2.65-4.37l0.45-0.27l0.06,0.06
								c3.29,3.35,5.81,4.45,8.18,3.57c1.08-0.4,1.95-1.15,2.43-2.1c0.47-0.93,0.54-1.97,0.19-2.92c-0.83-2.23-3.48-2.19-6.29-2.16
								c-3.31,0.04-6.73,0.08-7.99-3.3l0,0c-0.54-1.45-0.43-2.91,0.33-4.22c0.76-1.33,2.13-2.39,3.94-3.06
								c3.68-1.37,6.8-0.15,6.84-0.13l0.03,0.01l0.02,0.03l2.62,4.32l-0.45,0.27l-0.06-0.06c-3.16-3.58-6.31-4.92-9.09-3.88
								c-2.36,0.88-3.49,3.07-2.69,5.21c0.9,2.43,3.66,2.4,6.57,2.37c3.21-0.03,6.53-0.07,7.73,3.16c1.03,2.77-0.82,5.75-4.4,7.08
								C133.74,151.86,132.44,151.98,131.28,151.98z M129.17,151.66c1.33,0.15,3.77,0.28,5.58-0.38c3.47-1.29,5.27-4.16,4.28-6.82
								c-1.15-3.1-4.4-3.07-7.54-3.03c-2.99,0.03-5.81,0.06-6.76-2.5c-0.84-2.25,0.35-4.55,2.81-5.47c2.86-1.06,6.05,0.28,9.26,3.88
								l0.14-0.08l-2.5-4.12c-0.33-0.12-3.25-1.12-6.66,0.15c-1.77,0.66-3.1,1.68-3.84,2.97c-0.72,1.26-0.83,2.66-0.31,4.05l0,0
								c1.21,3.26,4.56,3.22,7.8,3.17c2.88-0.04,5.6-0.07,6.48,2.29c0.37,1,0.3,2.1-0.2,3.08c-0.51,0.99-1.41,1.77-2.54,2.19
								c-2.44,0.91-5.02-0.19-8.34-3.56l-0.14,0.09L129.17,151.66z"/>
						</g>
						<g>
							<path class="st6" d="M101.67,146.05c-0.02-1.76,0.49-3.69,1.41-5.12c0.92-1.44,2.27-2.5,3.6-3.41
								c0.42-0.28,0.87-0.51,1.35-0.71c2.08-0.85,4.42-0.88,6.53-0.11c0.5,0.18,0.98,0.41,1.42,0.69c1.36,0.87,2.74,1.88,3.7,3.3
								c0.96,1.4,1.52,3.32,1.55,5.08c0.02,1.76-0.49,3.69-1.41,5.12c-0.92,1.44-2.27,2.5-3.6,3.4c-0.43,0.29-0.91,0.53-1.4,0.72
								c-2.09,0.83-4.43,0.87-6.53,0.07c-0.48-0.18-0.94-0.4-1.37-0.67c-1.36-0.87-2.74-1.89-3.7-3.3
								C102.26,149.73,101.7,147.81,101.67,146.05z M103.99,146.02c0.02,1.43,0.26,2.85,0.79,4.25c0.54,1.38,1.31,2.68,2.54,3.6
								c0.05,0.04,0.1,0.07,0.15,0.1c2.47,1.69,5.76,1.64,8.18-0.12c0.05-0.04,0.1-0.07,0.15-0.11c1.21-0.95,1.94-2.28,2.44-3.67
								c0.49-1.41,0.69-2.84,0.67-4.27c-0.02-1.43-0.26-2.86-0.79-4.25c-0.54-1.37-1.31-2.68-2.54-3.6c-0.05-0.04-0.1-0.07-0.15-0.1
								c-2.47-1.69-5.76-1.64-8.18,0.12c-0.05,0.04-0.1,0.07-0.15,0.11c-1.21,0.95-1.94,2.28-2.44,3.67
								C104.17,143.16,103.97,144.59,103.99,146.02z"/>
							<path class="st6" d="M111.44,155.77c-1.08,0-2.16-0.19-3.19-0.58c-0.5-0.19-0.97-0.42-1.38-0.68
								c-1.29-0.82-2.73-1.86-3.73-3.33c-0.95-1.39-1.53-3.31-1.57-5.13v0c-0.02-1.82,0.52-3.76,1.42-5.17
								c0.95-1.5,2.37-2.58,3.63-3.43c0.41-0.27,0.87-0.51,1.36-0.72c2.1-0.86,4.44-0.9,6.6-0.11c0.53,0.19,1.02,0.43,1.44,0.7
								c1.28,0.82,2.73,1.86,3.73,3.33c0.95,1.39,1.53,3.31,1.57,5.13c0.02,1.82-0.51,3.75-1.42,5.18
								c-0.95,1.49-2.37,2.57-3.63,3.43c-0.42,0.28-0.9,0.53-1.42,0.73C113.75,155.56,112.59,155.77,111.44,155.77z M101.77,146.05
								c0.03,1.78,0.61,3.66,1.53,5.02c0.97,1.44,2.4,2.46,3.67,3.27c0.4,0.25,0.86,0.47,1.35,0.66c2.08,0.78,4.37,0.75,6.46-0.07
								c0.51-0.2,0.98-0.44,1.39-0.71c1.24-0.85,2.64-1.91,3.57-3.38c0.89-1.39,1.41-3.28,1.39-5.07c-0.03-1.78-0.61-3.66-1.53-5.02
								c-0.98-1.44-2.4-2.46-3.67-3.27c-0.41-0.26-0.89-0.49-1.41-0.68c-2.11-0.77-4.41-0.73-6.46,0.11
								c-0.49,0.2-0.93,0.43-1.33,0.7c-1.24,0.85-2.64,1.91-3.57,3.38C102.27,142.37,101.75,144.27,101.77,146.05z M111.48,155.3
								c-1.42,0-2.84-0.42-4.06-1.25c-0.05-0.03-0.1-0.07-0.15-0.11c-1.09-0.81-1.93-2-2.58-3.64c-0.5-1.34-0.77-2.78-0.79-4.28l0,0
								c-0.02-1.51,0.2-2.95,0.67-4.3c0.6-1.66,1.41-2.88,2.47-3.71c0.05-0.04,0.1-0.07,0.15-0.11c2.46-1.78,5.79-1.82,8.3-0.12
								c0.05,0.04,0.1,0.07,0.15,0.11c1.08,0.8,1.93,2,2.58,3.64c0.5,1.34,0.77,2.78,0.79,4.28c0.02,1.5-0.2,2.95-0.67,4.3
								c-0.6,1.67-1.41,2.88-2.47,3.72c-0.05,0.04-0.1,0.07-0.15,0.11C114.45,154.85,112.97,155.3,111.48,155.3z M104.09,146.02
								c0.02,1.48,0.28,2.9,0.78,4.21c0.63,1.61,1.46,2.77,2.51,3.55c0.05,0.03,0.1,0.07,0.15,0.1c2.44,1.66,5.68,1.61,8.07-0.11
								c0.05-0.04,0.1-0.07,0.14-0.11c1.04-0.82,1.81-1.97,2.41-3.62c0.46-1.33,0.68-2.75,0.66-4.23c-0.02-1.48-0.28-2.9-0.78-4.22
								c-0.64-1.61-1.46-2.77-2.51-3.55c-0.05-0.03-0.1-0.07-0.14-0.1c-2.44-1.66-5.68-1.62-8.07,0.11
								c-0.05,0.04-0.1,0.07-0.14,0.11c-1.03,0.81-1.82,2-2.41,3.62C104.29,143.11,104.07,144.54,104.09,146.02L104.09,146.02z"/>
						</g>
						<g>
							<path class="st6" d="M80.84,146.31l4.75-12.95c0.41-1.12-0.16-2.36-1.29-2.78l0.12-0.32l4.71,1.73l3.17,19.29
								c0.05,0.28,0.29,0.5,0.6,0.5c0.26,0,0.48-0.18,0.57-0.42l4.9-13.35c0.41-1.11-0.16-2.33-1.27-2.74l0.12-0.32l4.34,1.59
								l-0.12,0.32l-0.02-0.01c-1.11-0.41-2.33,0.16-2.74,1.27l-4.76,12.98c-0.41,1.12,0.16,2.35,1.28,2.76l-0.12,0.32l-4.71-1.73
								l-3.16-19.28c-0.03-0.22-0.18-0.39-0.39-0.47c-0.16-0.06-0.32-0.05-0.46,0.02c-0.14,0.06-0.25,0.18-0.31,0.34l-4.9,13.35
								c-0.41,1.12,0.16,2.35,1.28,2.76l-0.12,0.32l-4.36-1.6l0.12-0.32l0.01,0C79.2,148,80.43,147.42,80.84,146.31z"/>
							<path class="st6" d="M95.15,154.32l-0.09-0.03l-4.77-1.75l-0.01-0.06l-3.16-19.28c-0.03-0.18-0.15-0.33-0.32-0.39
								c-0.13-0.05-0.26-0.04-0.38,0.02c-0.12,0.06-0.21,0.16-0.26,0.28l-4.9,13.35c-0.19,0.51-0.17,1.07,0.06,1.57
								c0.23,0.5,0.64,0.88,1.16,1.06l0.09,0.03l-0.19,0.51l-0.09-0.03l-4.46-1.63l0.19-0.51l0.09,0.03
								c0.53,0.19,1.08,0.17,1.58-0.06c0.5-0.23,0.88-0.64,1.06-1.16l4.75-12.95c0.19-0.52,0.17-1.08-0.07-1.58
								s-0.64-0.88-1.16-1.07l-0.09-0.03l0.19-0.51l4.86,1.78l0.01,0.06l3.17,19.29c0.04,0.24,0.25,0.42,0.5,0.42c0,0,0,0,0.01,0
								c0.21,0,0.4-0.14,0.47-0.35l4.9-13.35c0.39-1.05-0.16-2.22-1.21-2.61l-0.09-0.03l0.19-0.51l4.52,1.66l-0.19,0.51l-0.09-0.04
								c-1.07-0.39-2.24,0.15-2.63,1.2l-4.76,12.98c-0.19,0.51-0.17,1.07,0.06,1.57c0.23,0.5,0.64,0.88,1.16,1.06l0.09,0.03
								L95.15,154.32z M90.46,152.39l4.56,1.67l0.05-0.14c-0.52-0.22-0.94-0.62-1.18-1.13c-0.25-0.55-0.28-1.16-0.07-1.72
								l4.76-12.98c0.41-1.13,1.65-1.73,2.79-1.35l0.05-0.14l-4.15-1.52l-0.05,0.14c1.09,0.46,1.65,1.7,1.23,2.83l-4.9,13.35
								c-0.11,0.29-0.37,0.48-0.66,0.48c0,0-0.01,0-0.01,0c-0.34,0-0.64-0.25-0.69-0.59l-3.16-19.24l-4.56-1.67l-0.05,0.14
								c0.52,0.22,0.94,0.62,1.18,1.14c0.25,0.55,0.28,1.16,0.07,1.73l-4.75,12.95c-0.21,0.56-0.62,1.02-1.17,1.27
								c-0.52,0.24-1.1,0.27-1.64,0.1l-0.05,0.14l4.18,1.53l0.05-0.14c-0.52-0.22-0.94-0.62-1.18-1.13
								c-0.25-0.55-0.28-1.16-0.07-1.72l4.9-13.35c0.07-0.18,0.19-0.32,0.37-0.4c0.17-0.08,0.36-0.09,0.54-0.02
								c0.24,0.09,0.41,0.3,0.45,0.55L90.46,152.39z"/>
						</g>
						<g>
							<path class="st6" d="M63.88,116.93c2.31-2,5.6-1.54,8.17,1.44c2.57,2.97,2.49,6.29,2.49,6.29l-3.07,3.89l-0.27-0.21
								c2.14-4.01,2.52-7.6,0.45-9.99c-1.69-1.95-4.19-2.24-5.96-0.71c-4.2,3.63,4.73,11.09-0.19,15.34
								c-2.18,1.88-5.57,1.22-8.03-1.64c-1.2-1.39-1.94-3.58-2.34-5.18l3.07-3.89l0.27,0.21c-1.73,3.69-2.36,6.84-0.47,9.02
								c1.61,1.87,4.14,2.1,5.76,0.71C67.7,128.81,58.83,121.3,63.88,116.93z"/>
							<path class="st6" d="M62.61,134.15c-1.76,0-3.67-0.95-5.22-2.74c-1.3-1.5-2.04-3.92-2.36-5.22l-0.01-0.05l3.17-4.01
								l0.41,0.32l-0.03,0.07c-1.99,4.25-2.14,7-0.49,8.91c0.76,0.87,1.76,1.42,2.81,1.54c1.04,0.12,2.03-0.18,2.8-0.84
								c1.8-1.55,0.84-4.03-0.18-6.65c-1.19-3.09-2.43-6.28,0.31-8.64c1.17-1.01,2.58-1.42,4.07-1.17c1.51,0.25,2.98,1.16,4.24,2.62
								c2.57,2.97,2.51,6.33,2.51,6.36l0,0.03l-3.16,4l-0.41-0.33l0.04-0.07c2.25-4.21,2.41-7.63,0.46-9.88
								c-1.64-1.9-4.09-2.2-5.82-0.7c-1.96,1.7-0.97,4.27,0.07,6.99c1.15,3,2.35,6.1-0.26,8.35
								C64.71,133.79,63.69,134.15,62.61,134.15z M55.24,126.19c0.33,1.3,1.05,3.64,2.31,5.09c2.42,2.8,5.74,3.48,7.89,1.63
								c2.5-2.16,1.33-5.19,0.21-8.13c-1.07-2.79-2.09-5.42-0.02-7.21c1.82-1.57,4.38-1.26,6.1,0.72c1.99,2.3,1.85,5.77-0.4,10.03
								l0.13,0.1l2.99-3.79c0-0.35-0.09-3.44-2.47-6.19c-1.23-1.43-2.66-2.31-4.12-2.56c-1.43-0.24-2.78,0.15-3.91,1.12l0,0
								c-2.63,2.27-1.42,5.39-0.25,8.42c1.04,2.69,2.02,5.22,0.12,6.87c-0.81,0.7-1.86,1.02-2.95,0.89
								c-1.11-0.13-2.15-0.7-2.94-1.61c-1.7-1.97-1.57-4.77,0.42-9.06l-0.13-0.1L55.24,126.19z"/>
						</g>
						<g>
							<path class="st6" d="M63.96,107.2L63.96,107.2l0.3-0.17l2.98,5.5l-0.3,0.16c-0.28-0.52-0.75-0.88-1.28-1.04
								c-0.53-0.16-1.12-0.11-1.64,0.17l-12.14,6.57c-1.05,0.57-1.43,1.87-0.87,2.92l-0.3,0.16l-2.98-5.5l0.3-0.16l0,0
								c0.57,1.05,1.87,1.43,2.92,0.87l12.14-6.57C64.13,109.56,64.52,108.25,63.96,107.2z"/>
							<path class="st6" d="M50.66,121.63l-3.07-5.68l0.48-0.26l0.05,0.09c0.54,0.99,1.79,1.36,2.78,0.83l12.14-6.57
								c0.99-0.54,1.37-1.78,0.83-2.78l-0.06-0.09l0.49-0.26l3.07,5.68l-0.48,0.26l-0.05-0.09c-0.26-0.48-0.7-0.83-1.22-0.99
								c-0.53-0.16-1.08-0.1-1.56,0.16l-12.14,6.57c-0.48,0.26-0.83,0.69-0.99,1.22c-0.16,0.53-0.1,1.08,0.16,1.56l0.05,0.09
								L50.66,121.63z M47.86,116.03l2.88,5.33l0.13-0.07c-0.25-0.51-0.29-1.08-0.13-1.63c0.17-0.58,0.56-1.05,1.09-1.34l12.14-6.57
								c0.53-0.29,1.14-0.35,1.71-0.18c0.54,0.16,1,0.51,1.29,1l0.13-0.07l-2.88-5.33l-0.13,0.07c0.52,1.08,0.11,2.39-0.95,2.97
								l-12.14,6.57c-1.06,0.58-2.39,0.2-3.01-0.82L47.86,116.03z"/>
						</g>
						<g>
							<path class="st6" d="M48.34,95.91c1.82,0.54,3.2,2.03,3.71,3.86l0.94,3.38c0.23,0.84,1.1,1.33,1.94,1.1l4.97-1.37
								c1.15-0.32,1.82-1.5,1.51-2.65l0,0l0.33-0.09l1.66,6.04l-0.33,0.09c-0.32-1.15-1.5-1.82-2.65-1.51l-13.31,3.66
								c-1.15,0.32-1.82,1.5-1.51,2.65l-0.33,0.09l-2.63-9.56c-0.55-2.36,0.65-4.87,2.94-5.69C46.46,95.6,47.42,95.63,48.34,95.91z
								 M46.44,97.69c-0.16,0.04-0.32,0.1-0.47,0.16c-2.1,0.82-3.13,3.21-2.54,5.39l1.07,3.89l7.05-1.94
								c0.84-0.23,1.34-1.1,1.1-1.94L52.05,101c-0.42-1.52-1.53-2.83-3.04-3.28C48.21,97.47,47.32,97.45,46.44,97.69z"/>
							<path class="st6" d="M45.2,111.28l-2.66-9.66c-0.58-2.49,0.71-4.99,3-5.81c0.85-0.3,1.83-0.3,2.82-0.01l0,0
								c1.8,0.53,3.25,2.04,3.78,3.93l0.94,3.38c0.22,0.78,1.03,1.25,1.82,1.03l4.97-1.37c0.53-0.15,0.97-0.49,1.24-0.97
								c0.27-0.48,0.34-1.03,0.19-1.56l-0.05-0.11l0.12-0.02l0.43-0.12l1.72,6.23L63,106.39l-0.03-0.1
								c-0.15-0.53-0.49-0.97-0.97-1.24c-0.48-0.27-1.03-0.34-1.56-0.19l-13.31,3.66c-0.53,0.15-0.97,0.49-1.24,0.97
								c-0.27,0.48-0.34,1.03-0.2,1.56l0.03,0.1L45.2,111.28z M46.91,95.79c-0.46,0-0.89,0.07-1.3,0.21
								c-2.2,0.79-3.44,3.19-2.88,5.57l2.6,9.46l0.14-0.04c-0.13-0.55-0.04-1.12,0.24-1.61c0.3-0.52,0.78-0.9,1.36-1.06l13.31-3.66
								c0.58-0.16,1.19-0.08,1.71,0.21c0.49,0.28,0.86,0.73,1.03,1.27l0.14-0.04l-1.61-5.84l-0.14,0.04
								c0.13,0.56,0.04,1.13-0.24,1.62c-0.3,0.52-0.78,0.9-1.36,1.06l-4.97,1.37c-0.89,0.24-1.82-0.28-2.06-1.17l-0.94-3.38
								c-0.51-1.82-1.9-3.28-3.64-3.79l0,0C47.83,95.86,47.37,95.79,46.91,95.79z M44.44,107.24l-1.1-3.98
								c-0.63-2.28,0.51-4.69,2.6-5.5c0.15-0.06,0.31-0.11,0.47-0.16l0,0c0.87-0.24,1.78-0.23,2.62,0.03
								c1.47,0.43,2.66,1.72,3.11,3.35l0.62,2.24c0.25,0.89-0.28,1.82-1.17,2.06L44.44,107.24z M46.47,97.78L46.47,97.78
								c-0.16,0.04-0.31,0.09-0.45,0.15c-1.99,0.77-3.08,3.09-2.48,5.27l1.04,3.79l6.95-1.91c0.79-0.22,1.25-1.03,1.03-1.82
								l-0.62-2.24c-0.43-1.56-1.57-2.79-2.97-3.21C48.17,97.56,47.3,97.55,46.47,97.78z"/>
						</g>
					</g>
				</g>
				<g>
					<path class="st6" d="M46.41,85.61c0,0.04,0,0.09,0,0.13c0,0.9,0.23,1.64,0.63,2.18c0,0,0,0,0,0.01
						c0.26,0.35,0.59,0.61,0.97,0.77c0.29,0.12,0.61,0.19,0.95,0.19h0.02c0.24,0,0.46-0.04,0.66-0.1c0.79-0.24,1.27-0.9,1.63-1.68
						c0.34,0.71,0.77,1.31,1.47,1.55c0.04,0.02,0.08,0.03,0.13,0.04c0.18,0.05,0.39,0.08,0.61,0.08c0.49,0,0.93-0.16,1.3-0.45
						c0.28-0.22,0.53-0.51,0.71-0.86c0.25-0.47,0.4-1.04,0.42-1.69c0-0.06,0-0.12,0-0.18c0-0.06,0-0.11,0-0.17
						c-0.02-0.64-0.18-1.22-0.42-1.69c-0.19-0.35-0.43-0.64-0.71-0.86c-0.37-0.29-0.81-0.45-1.3-0.45c-0.22,0-0.42,0.03-0.61,0.08
						c-0.04,0.01-0.09,0.03-0.13,0.04c-0.7,0.24-1.13,0.84-1.47,1.55c-0.36-0.78-0.84-1.44-1.63-1.68c-0.2-0.06-0.42-0.09-0.67-0.1
						h-0.02c-0.34,0-0.66,0.06-0.95,0.19c-0.38,0.16-0.71,0.42-0.97,0.77c0,0,0,0,0,0.01c-0.4,0.54-0.63,1.28-0.63,2.18
						C46.41,85.52,46.41,85.56,46.41,85.61z M51.86,85.61c0.34-0.94,0.69-1.81,1.34-2.16c0.35-0.19,0.78-0.15,1.11,0.07
						c0.79,0.54,1.31,1.17,1.44,1.94c0.02,0.1,0.02,0.21,0,0.31c-0.13,0.77-0.65,1.39-1.44,1.93c-0.33,0.23-0.76,0.26-1.11,0.07
						C52.55,87.41,52.2,86.55,51.86,85.61z M46.59,85.46c0.12-0.8,0.61-1.5,1.38-2.09c0.16-0.12,0.35-0.2,0.55-0.2c0,0,0,0,0,0
						c1.24,0,1.72,1.17,2.18,2.43c-0.46,1.27-0.94,2.43-2.18,2.43c0,0,0,0,0,0c-0.2,0-0.4-0.08-0.56-0.2
						c-0.77-0.59-1.25-1.29-1.38-2.09C46.57,85.66,46.57,85.56,46.59,85.46z"/>
					<path class="st6" d="M48.99,88.98c-0.37,0-0.71-0.07-1.01-0.19c-0.4-0.17-0.74-0.44-1.01-0.8l-0.02-0.03
						c-0.42-0.58-0.64-1.34-0.64-2.22c0-0.04,0-0.09,0-0.13c0-0.04,0-0.09,0-0.13c0-0.88,0.22-1.64,0.63-2.21v-0.01l0.03-0.04
						c0.26-0.35,0.6-0.62,1-0.79c0.31-0.13,0.64-0.19,0.99-0.19c0.26,0,0.5,0.04,0.71,0.1c0.84,0.25,1.31,0.96,1.61,1.55
						c0.27-0.53,0.7-1.17,1.44-1.42c0.04-0.02,0.09-0.03,0.13-0.04c0.2-0.05,0.41-0.08,0.63-0.08c0.5,0,0.97,0.16,1.36,0.47
						c0.29,0.23,0.54,0.53,0.74,0.89c0.26,0.5,0.41,1.1,0.44,1.73c0,0.06,0,0.12,0,0.17c0,0.06,0,0.12,0,0.18
						c-0.02,0.63-0.17,1.23-0.44,1.73c-0.2,0.37-0.44,0.67-0.74,0.89c-0.39,0.3-0.87,0.47-1.36,0.47c-0.22,0-0.44-0.03-0.63-0.08
						c-0.05-0.01-0.09-0.03-0.14-0.04c-0.73-0.25-1.16-0.89-1.43-1.42c-0.29,0.59-0.77,1.3-1.61,1.55
						C49.47,88.94,49.24,88.98,48.99,88.98z M47.14,87.89c0.25,0.32,0.55,0.56,0.91,0.71c0.28,0.12,0.59,0.18,0.91,0.18
						c0.25,0,0.46-0.03,0.66-0.09c0.66-0.2,1.14-0.7,1.57-1.63l0.09-0.19l0.09,0.19c0.39,0.83,0.84,1.3,1.41,1.5
						c0.04,0.02,0.08,0.03,0.12,0.04c0.18,0.05,0.37,0.07,0.58,0.07c0.45,0,0.88-0.15,1.24-0.42c0.27-0.21,0.5-0.49,0.69-0.83
						c0.23-0.43,0.37-0.93,0.4-1.48c-0.17,0.68-0.64,1.28-1.45,1.83c-0.37,0.25-0.84,0.28-1.22,0.08c-0.67-0.37-1.02-1.22-1.38-2.22
						l-0.01-0.03l0.01-0.03c0.36-1,0.71-1.85,1.39-2.22c0.38-0.2,0.85-0.17,1.22,0.08c0.8,0.56,1.28,1.16,1.45,1.84
						c-0.04-0.54-0.18-1.05-0.4-1.48c-0.18-0.34-0.41-0.62-0.68-0.83c-0.36-0.28-0.79-0.42-1.24-0.42c-0.21,0-0.4,0.02-0.58,0.07
						c-0.04,0.01-0.08,0.02-0.12,0.04c-0.58,0.2-1.02,0.67-1.42,1.5l-0.09,0.19l-0.09-0.19c-0.43-0.93-0.91-1.43-1.57-1.63
						c-0.2-0.06-0.41-0.09-0.64-0.09c-0.34,0-0.64,0.06-0.93,0.18c-0.36,0.15-0.67,0.39-0.91,0.71v0l-0.02,0.03
						c-0.37,0.5-0.58,1.18-0.61,1.95c0.16-0.75,0.63-1.43,1.4-2.02c0.19-0.14,0.4-0.22,0.61-0.22c1.37,0,1.87,1.39,2.27,2.5
						l0.01,0.03l-0.01,0.03c-0.4,1.11-0.91,2.5-2.27,2.5c-0.22,0-0.44-0.08-0.62-0.22c-0.77-0.59-1.24-1.26-1.39-2.01
						c0.03,0.78,0.24,1.45,0.61,1.95L47.14,87.89z M48.53,83.27c-0.17,0-0.34,0.06-0.5,0.18c-0.78,0.59-1.23,1.27-1.35,2.02v0
						c-0.01,0.09-0.01,0.17,0,0.26c0.12,0.75,0.57,1.43,1.34,2.02c0.15,0.12,0.33,0.18,0.5,0.18c1.13,0,1.59-1.01,2.07-2.33
						C50.12,84.28,49.65,83.27,48.53,83.27z M51.97,85.61c0.34,0.94,0.68,1.75,1.28,2.07c0.31,0.17,0.71,0.14,1.01-0.07
						c0.82-0.57,1.28-1.18,1.4-1.87c0.02-0.09,0.02-0.18,0-0.27c-0.12-0.69-0.58-1.3-1.4-1.87c-0.3-0.21-0.7-0.24-1.01-0.07
						C52.65,83.86,52.31,84.66,51.97,85.61z"/>
				</g>
				<g>
					<path class="st6" d="M174.7,85.47c0-0.9-0.23-1.64-0.63-2.18c0,0,0,0,0-0.01c-0.26-0.35-0.59-0.61-0.97-0.77
						c-0.29-0.12-0.61-0.19-0.95-0.19h-0.02c-0.25,0-0.47,0.04-0.67,0.1c-0.79,0.24-1.27,0.9-1.63,1.68
						c-0.34-0.71-0.77-1.31-1.47-1.55c-0.04-0.02-0.08-0.03-0.13-0.04c-0.18-0.05-0.39-0.08-0.61-0.08c-0.49,0-0.93,0.16-1.3,0.45
						c-0.28,0.22-0.53,0.51-0.71,0.86c-0.25,0.47-0.4,1.04-0.42,1.69c0,0.06,0,0.11,0,0.17c0,0.06,0,0.12,0,0.18
						c0.02,0.64,0.18,1.22,0.42,1.69c0.19,0.35,0.43,0.64,0.71,0.86c0.37,0.29,0.81,0.45,1.3,0.45c0.22,0,0.42-0.03,0.61-0.08
						c0.04-0.01,0.09-0.03,0.13-0.04c0.7-0.24,1.13-0.84,1.47-1.55c0.36,0.78,0.84,1.44,1.63,1.68c0.2,0.06,0.42,0.09,0.66,0.1h0.02
						c0.34,0,0.66-0.06,0.95-0.19c0.38-0.16,0.71-0.42,0.97-0.77c0,0,0,0,0-0.01c0.4-0.54,0.63-1.28,0.63-2.18c0-0.04,0-0.09,0-0.13
						C174.7,85.56,174.7,85.52,174.7,85.47z M167.91,87.77c-0.35,0.19-0.79,0.15-1.11-0.07c-0.79-0.54-1.31-1.17-1.44-1.93
						c-0.02-0.1-0.02-0.21,0-0.31c0.13-0.77,0.65-1.39,1.44-1.94c0.33-0.23,0.76-0.26,1.11-0.07c0.65,0.35,1,1.22,1.34,2.16
						C168.9,86.55,168.56,87.41,167.91,87.77z M174.52,85.75c-0.12,0.8-0.61,1.5-1.38,2.09c-0.16,0.12-0.36,0.2-0.56,0.2
						c0,0,0,0,0,0c-1.24,0-1.72-1.17-2.18-2.43c0.46-1.27,0.94-2.43,2.18-2.43c0,0,0,0,0,0c0.2,0,0.39,0.08,0.55,0.2
						c0.77,0.59,1.26,1.29,1.38,2.09C174.53,85.56,174.53,85.66,174.52,85.75z"/>
					<path class="st6" d="M172.14,88.98c-0.27,0-0.5-0.04-0.71-0.1c-0.84-0.25-1.31-0.96-1.61-1.55c-0.27,0.53-0.7,1.16-1.44,1.42
						c-0.04,0.02-0.09,0.03-0.13,0.04c-0.2,0.05-0.41,0.08-0.63,0.08c-0.5,0-0.97-0.16-1.36-0.47c-0.29-0.23-0.54-0.53-0.74-0.89
						c-0.26-0.5-0.41-1.09-0.44-1.73c0-0.06,0-0.12,0-0.18c0-0.06,0-0.12,0-0.17c0.02-0.63,0.17-1.23,0.44-1.73
						c0.2-0.37,0.44-0.67,0.74-0.89c0.39-0.3,0.87-0.47,1.36-0.47c0.22,0,0.44,0.03,0.63,0.08c0.05,0.01,0.09,0.03,0.14,0.04
						c0.73,0.25,1.16,0.89,1.43,1.42c0.29-0.58,0.77-1.29,1.6-1.55c0.22-0.06,0.45-0.1,0.7-0.1c0.37,0,0.7,0.07,1,0.19
						c0.4,0.17,0.74,0.44,1.01,0.8l0.02,0.03c0.42,0.57,0.64,1.34,0.64,2.22c0,0.05,0,0.09,0,0.14c0,0.03,0,0.08,0,0.13
						c0,0.88-0.22,1.64-0.64,2.22v0l-0.02,0.03c-0.27,0.36-0.61,0.63-1.01,0.8C172.82,88.91,172.49,88.98,172.14,88.98z
						 M169.82,86.87l0.09,0.19c0.43,0.93,0.92,1.43,1.57,1.63c0.2,0.06,0.41,0.09,0.64,0.09c0.35,0,0.65-0.06,0.93-0.18
						c0.36-0.15,0.66-0.39,0.91-0.71v-0.01l0.03-0.04c0.37-0.49,0.57-1.17,0.6-1.94c-0.16,0.75-0.62,1.42-1.39,2.01
						c-0.19,0.14-0.4,0.22-0.62,0.22c-1.37,0-1.87-1.39-2.27-2.5l-0.01-0.03l0.01-0.03c0.4-1.11,0.91-2.5,2.27-2.5
						c0.22,0,0.43,0.08,0.62,0.22c0.77,0.59,1.24,1.27,1.4,2.02c-0.03-0.78-0.24-1.45-0.61-1.95l-0.02-0.03
						c-0.25-0.33-0.56-0.56-0.91-0.71c-0.28-0.12-0.59-0.18-0.91-0.18c-0.24,0-0.46,0.03-0.66,0.09c-0.66,0.2-1.14,0.7-1.57,1.63
						l-0.09,0.19l-0.09-0.19c-0.4-0.84-0.83-1.3-1.41-1.5c-0.04-0.02-0.08-0.03-0.12-0.04c-0.18-0.05-0.37-0.07-0.58-0.07
						c-0.45,0-0.88,0.15-1.24,0.42c-0.27,0.21-0.5,0.49-0.69,0.83c-0.23,0.43-0.37,0.94-0.4,1.48c0.17-0.68,0.64-1.28,1.45-1.84
						c0.36-0.25,0.84-0.28,1.22-0.08c0.67,0.36,1.02,1.22,1.38,2.22l0.01,0.03l-0.01,0.03c-0.36,1-0.71,1.85-1.38,2.22l0,0
						c-0.38,0.2-0.85,0.17-1.22-0.08c-0.81-0.56-1.28-1.16-1.45-1.84c0.04,0.54,0.18,1.05,0.4,1.48c0.18,0.34,0.41,0.62,0.68,0.83
						c0.36,0.28,0.79,0.42,1.24,0.42c0.21,0,0.4-0.02,0.58-0.07c0.04-0.01,0.08-0.02,0.12-0.04c0.58-0.2,1.03-0.68,1.41-1.5
						L169.82,86.87z M170.51,85.61c0.48,1.32,0.95,2.33,2.07,2.33c0.17,0,0.35-0.06,0.5-0.18c0.77-0.59,1.22-1.27,1.34-2.02l0,0
						c0.01-0.09,0.01-0.17,0-0.26c-0.12-0.75-0.57-1.43-1.35-2.02c-0.15-0.11-0.32-0.18-0.49-0.18
						C171.45,83.27,170.99,84.28,170.51,85.61z M167.42,83.42c-0.2,0-0.4,0.06-0.57,0.18c-0.82,0.57-1.28,1.18-1.4,1.87
						c-0.02,0.09-0.02,0.18,0,0.27c0.12,0.69,0.58,1.3,1.4,1.87c0.3,0.21,0.7,0.24,1.01,0.07l0,0c0.6-0.33,0.93-1.13,1.28-2.07
						c-0.34-0.94-0.68-1.75-1.28-2.07C167.72,83.46,167.57,83.42,167.42,83.42z"/>
				</g>
			</g>
			<g>
				<g>
					<path class="st6" d="M103.2,78.29c-0.03,0-0.07,0-0.1-0.01c-0.24-0.03-0.45-0.16-0.58-0.36c-1.31-2-2.43-4.14-3.32-6.39
						c-1.69-4.24-2.55-8.69-2.54-13.22c0-1.29,0.75-2.39,1.96-2.87c1.21-0.48,2.51-0.2,3.4,0.74c3.12,3.28,5.56,7.09,7.25,11.34
						c0.89,2.24,1.56,4.57,1.98,6.92c0.04,0.23-0.02,0.47-0.17,0.66c-0.15,0.18-0.37,0.29-0.61,0.3c-1.24,0.02-2.45,0.27-3.61,0.73
						c-1.16,0.46-2.21,1.12-3.12,1.95C103.59,78.21,103.4,78.29,103.2,78.29z M99.79,56.84c-0.21,0-0.4,0.04-0.57,0.11
						c-0.45,0.18-0.94,0.64-0.94,1.37c-0.01,4.32,0.81,8.57,2.42,12.62c0.74,1.86,1.64,3.64,2.68,5.33
						c0.87-0.68,1.84-1.23,2.88-1.65c1.04-0.42,2.12-0.68,3.22-0.79c-0.4-1.94-0.98-3.85-1.72-5.71l0,0
						c-1.61-4.05-3.94-7.69-6.92-10.82C100.52,56.96,100.14,56.84,99.79,56.84z"/>
				</g>
				<g>
					<path class="st6" d="M103.2,78.29c-0.03,0-0.07,0-0.1-0.01c-0.24-0.03-0.45-0.16-0.58-0.36c-1.31-2-2.43-4.14-3.32-6.39
						c-1.69-4.24-2.55-8.69-2.54-13.22c0-1.29,0.75-2.39,1.96-2.87c1.21-0.48,2.51-0.2,3.4,0.74c3.12,3.28,5.56,7.09,7.25,11.34
						c0.89,2.24,1.56,4.57,1.98,6.92c0.04,0.23-0.02,0.47-0.17,0.66c-0.15,0.18-0.37,0.29-0.61,0.3c-1.24,0.02-2.45,0.27-3.61,0.73
						c-1.16,0.46-2.21,1.12-3.12,1.95C103.59,78.21,103.4,78.29,103.2,78.29z M99.79,56.84c-0.21,0-0.4,0.04-0.57,0.11
						c-0.45,0.18-0.94,0.64-0.94,1.37c-0.01,4.32,0.81,8.57,2.42,12.62c0.74,1.86,1.64,3.64,2.68,5.33
						c0.87-0.68,1.84-1.23,2.88-1.65c1.04-0.42,2.12-0.68,3.22-0.79c-0.4-1.94-0.98-3.85-1.72-5.71l0,0
						c-1.61-4.05-3.94-7.69-6.92-10.82C100.52,56.96,100.14,56.84,99.79,56.84z"/>
				</g>
				<g>
					<path class="st6" d="M99.63,85.93c-0.05,0-0.11-0.01-0.16-0.02c-2.34-0.48-4.65-1.21-6.87-2.16c-4.2-1.8-7.94-4.34-11.14-7.55
						c-0.91-0.92-1.16-2.22-0.65-3.42c0.51-1.19,1.64-1.91,2.93-1.88c4.53,0.11,8.95,1.08,13.15,2.89c2.21,0.95,4.33,2.13,6.3,3.49
						c0.19,0.14,0.32,0.35,0.34,0.59c0.02,0.24-0.06,0.47-0.22,0.64c-1.73,1.8-2.75,4.16-2.86,6.65c-0.01,0.24-0.12,0.46-0.31,0.6
						C99.98,85.88,99.81,85.93,99.63,85.93z M83.66,72.52c-0.71,0-1.17,0.46-1.36,0.9c-0.19,0.45-0.21,1.11,0.31,1.64
						c3.05,3.06,6.63,5.49,10.63,7.21c1.84,0.79,3.74,1.42,5.66,1.87c0.28-2.22,1.18-4.31,2.6-6.04c-1.66-1.09-3.42-2.04-5.25-2.82
						c-4.01-1.72-8.23-2.65-12.55-2.75C83.69,72.52,83.67,72.52,83.66,72.52z"/>
				</g>
				<g>
					<path class="st6" d="M99.63,85.93c-0.05,0-0.11-0.01-0.16-0.02c-2.34-0.48-4.65-1.21-6.87-2.16c-4.2-1.8-7.94-4.34-11.14-7.55
						c-0.91-0.92-1.16-2.22-0.65-3.42c0.51-1.19,1.64-1.91,2.93-1.88c4.53,0.11,8.95,1.08,13.15,2.89c2.21,0.95,4.33,2.13,6.3,3.49
						c0.19,0.14,0.32,0.35,0.34,0.59c0.02,0.24-0.06,0.47-0.22,0.64c-1.73,1.8-2.75,4.16-2.86,6.65c-0.01,0.24-0.12,0.46-0.31,0.6
						C99.98,85.88,99.81,85.93,99.63,85.93z M83.66,72.52c-0.71,0-1.17,0.46-1.36,0.9c-0.19,0.45-0.21,1.11,0.31,1.64
						c3.05,3.06,6.63,5.49,10.63,7.21c1.84,0.79,3.74,1.42,5.66,1.87c0.28-2.22,1.18-4.31,2.6-6.04c-1.66-1.09-3.42-2.04-5.25-2.82
						c-4.01-1.72-8.23-2.65-12.55-2.75C83.69,72.52,83.67,72.52,83.66,72.52z"/>
				</g>
				<g>
					<path class="st6" d="M83.43,99.59c-0.02,0-0.05,0-0.07,0c-1.29,0-2.39-0.75-2.87-1.96c-0.48-1.21-0.2-2.51,0.74-3.4
						c3.28-3.12,7.09-5.56,11.34-7.25c2.24-0.89,4.57-1.56,6.92-1.98c0.23-0.04,0.47,0.02,0.66,0.17c0.18,0.15,0.29,0.37,0.3,0.61
						c0.02,1.24,0.27,2.45,0.73,3.61c0.46,1.16,1.12,2.21,1.95,3.12c0.16,0.17,0.24,0.41,0.21,0.65c-0.03,0.24-0.16,0.45-0.36,0.58
						c-1.99,1.31-4.14,2.43-6.39,3.32C92.35,98.74,87.93,99.59,83.43,99.59z M98.87,86.77c-1.94,0.4-3.86,0.98-5.71,1.72
						c-4.05,1.61-7.69,3.94-10.82,6.92c-0.53,0.51-0.53,1.17-0.35,1.63c0.18,0.45,0.64,0.94,1.37,0.94c0.02,0,0.04,0,0.07,0
						c4.3,0,8.52-0.81,12.55-2.42c1.86-0.74,3.64-1.64,5.33-2.68c-0.68-0.87-1.23-1.84-1.65-2.88
						C99.24,88.95,98.98,87.87,98.87,86.77z"/>
				</g>
				<g>
					<path class="st6" d="M83.43,99.59c-0.02,0-0.05,0-0.07,0c-1.29,0-2.39-0.75-2.87-1.96c-0.48-1.21-0.2-2.51,0.74-3.4
						c3.28-3.12,7.09-5.56,11.34-7.25c2.24-0.89,4.57-1.56,6.92-1.98c0.23-0.04,0.47,0.02,0.66,0.17c0.18,0.15,0.29,0.37,0.3,0.61
						c0.02,1.24,0.27,2.45,0.73,3.61c0.46,1.16,1.12,2.21,1.95,3.12c0.16,0.17,0.24,0.41,0.21,0.65c-0.03,0.24-0.16,0.45-0.36,0.58
						c-1.99,1.31-4.14,2.43-6.39,3.32C92.35,98.74,87.93,99.59,83.43,99.59z M98.87,86.77c-1.94,0.4-3.86,0.98-5.71,1.72
						c-4.05,1.61-7.69,3.94-10.82,6.92c-0.53,0.51-0.53,1.17-0.35,1.63c0.18,0.45,0.64,0.94,1.37,0.94c0.02,0,0.04,0,0.07,0
						c4.3,0,8.52-0.81,12.55-2.42c1.86-0.74,3.64-1.64,5.33-2.68c-0.68-0.87-1.23-1.84-1.65-2.88
						C99.24,88.95,98.98,87.87,98.87,86.77z"/>
				</g>
				<g>
					<path class="st6" d="M99.07,115.7c-0.42,0-0.84-0.09-1.25-0.26c-1.19-0.51-1.91-1.63-1.88-2.93c0.11-4.53,1.08-8.95,2.89-13.15
						c0.95-2.22,2.13-4.33,3.49-6.29c0.14-0.19,0.35-0.32,0.59-0.34c0.24-0.02,0.47,0.06,0.64,0.22c1.8,1.73,4.16,2.75,6.65,2.86
						c0.24,0.01,0.46,0.12,0.6,0.31c0.15,0.19,0.2,0.43,0.15,0.66c-0.48,2.34-1.21,4.65-2.16,6.87c-1.8,4.2-4.35,7.94-7.55,11.14
						C100.64,115.39,99.87,115.7,99.07,115.7z M103.14,94.75c-1.09,1.66-2.03,3.42-2.82,5.25c-1.72,4.01-2.65,8.23-2.76,12.55
						c-0.02,0.74,0.45,1.21,0.9,1.4c0.45,0.19,1.11,0.21,1.64-0.31c3.06-3.05,5.49-6.63,7.21-10.63c0.79-1.83,1.42-3.73,1.87-5.66
						C106.96,97.07,104.87,96.17,103.14,94.75z"/>
				</g>
				<g>
					<path class="st6" d="M99.07,115.7c-0.42,0-0.84-0.09-1.25-0.26c-1.19-0.51-1.91-1.63-1.88-2.93c0.11-4.53,1.08-8.95,2.89-13.15
						c0.95-2.22,2.13-4.33,3.49-6.29c0.14-0.19,0.35-0.32,0.59-0.34c0.24-0.02,0.47,0.06,0.64,0.22c1.8,1.73,4.16,2.75,6.65,2.86
						c0.24,0.01,0.46,0.12,0.6,0.31c0.15,0.19,0.2,0.43,0.15,0.66c-0.48,2.34-1.21,4.65-2.16,6.87c-1.8,4.2-4.35,7.94-7.55,11.14
						C100.64,115.39,99.87,115.7,99.07,115.7z M103.14,94.75c-1.09,1.66-2.03,3.42-2.82,5.25c-1.72,4.01-2.65,8.23-2.76,12.55
						c-0.02,0.74,0.45,1.21,0.9,1.4c0.45,0.19,1.11,0.21,1.64-0.31c3.06-3.05,5.49-6.63,7.21-10.63c0.79-1.83,1.42-3.73,1.87-5.66
						C106.96,97.07,104.87,96.17,103.14,94.75z"/>
				</g>
				<g>
					<path class="st6" d="M121.49,116c-0.82,0-1.62-0.33-2.22-0.97c-3.12-3.28-5.56-7.09-7.25-11.34c-0.89-2.24-1.56-4.57-1.98-6.92
						c-0.04-0.23,0.02-0.47,0.17-0.66s0.37-0.29,0.61-0.3c1.24-0.02,2.45-0.27,3.61-0.73c1.16-0.46,2.21-1.12,3.12-1.95
						c0.17-0.16,0.41-0.24,0.65-0.21c0.24,0.03,0.45,0.16,0.58,0.36c1.31,1.99,2.43,4.14,3.33,6.39l0,0
						c1.69,4.24,2.54,8.69,2.54,13.22c0,1.29-0.75,2.39-1.96,2.87C122.28,115.92,121.89,116,121.49,116z M111.8,97.38
						c0.4,1.94,0.98,3.85,1.72,5.71c1.61,4.05,3.94,7.69,6.92,10.82c0.51,0.53,1.17,0.53,1.63,0.35c0.45-0.18,0.94-0.64,0.94-1.37
						c0.01-4.32-0.81-8.57-2.42-12.62c-0.74-1.86-1.64-3.64-2.68-5.33c-0.87,0.68-1.84,1.23-2.88,1.65
						C113.99,97.01,112.91,97.28,111.8,97.38z"/>
				</g>
				<g>
					<path class="st6" d="M121.49,116c-0.82,0-1.62-0.33-2.22-0.97c-3.12-3.28-5.56-7.09-7.25-11.34c-0.89-2.24-1.56-4.57-1.98-6.92
						c-0.04-0.23,0.02-0.47,0.17-0.66s0.37-0.29,0.61-0.3c1.24-0.02,2.45-0.27,3.61-0.73c1.16-0.46,2.21-1.12,3.12-1.95
						c0.17-0.16,0.41-0.24,0.65-0.21c0.24,0.03,0.45,0.16,0.58,0.36c1.31,1.99,2.43,4.14,3.33,6.39l0,0
						c1.69,4.24,2.54,8.69,2.54,13.22c0,1.29-0.75,2.39-1.96,2.87C122.28,115.92,121.89,116,121.49,116z M111.8,97.38
						c0.4,1.94,0.98,3.85,1.72,5.71c1.61,4.05,3.94,7.69,6.92,10.82c0.51,0.53,1.17,0.53,1.63,0.35c0.45-0.18,0.94-0.64,0.94-1.37
						c0.01-4.32-0.81-8.57-2.42-12.62c-0.74-1.86-1.64-3.64-2.68-5.33c-0.87,0.68-1.84,1.23-2.88,1.65
						C113.99,97.01,112.91,97.28,111.8,97.38z"/>
				</g>
				<g>
					<path class="st6" d="M137.63,100.31c-0.03,0-0.06,0-0.08,0l0,0c-4.53-0.11-8.95-1.08-13.15-2.89c-2.22-0.95-4.34-2.13-6.3-3.49
						c-0.19-0.14-0.32-0.35-0.34-0.59c-0.02-0.24,0.06-0.47,0.22-0.64c1.73-1.8,2.75-4.16,2.86-6.65c0.01-0.24,0.12-0.46,0.31-0.6
						c0.19-0.15,0.43-0.2,0.66-0.15c2.34,0.48,4.65,1.21,6.87,2.16c4.2,1.8,7.94,4.34,11.14,7.55c0.91,0.92,1.16,2.22,0.65,3.42
						C139.98,99.6,138.89,100.31,137.63,100.31z M119.79,93.11c1.65,1.09,3.42,2.03,5.25,2.82c4.01,1.72,8.23,2.65,12.55,2.76l0,0
						c0.74,0.02,1.21-0.45,1.4-0.9c0.19-0.45,0.21-1.11-0.31-1.64c-3.05-3.06-6.63-5.49-10.63-7.21c-1.83-0.79-3.74-1.42-5.66-1.87
						C122.11,89.3,121.21,91.39,119.79,93.11z"/>
				</g>
				<g>
					<path class="st6" d="M137.63,100.31c-0.03,0-0.06,0-0.08,0l0,0c-4.53-0.11-8.95-1.08-13.15-2.89c-2.22-0.95-4.34-2.13-6.3-3.49
						c-0.19-0.14-0.32-0.35-0.34-0.59c-0.02-0.24,0.06-0.47,0.22-0.64c1.73-1.8,2.75-4.16,2.86-6.65c0.01-0.24,0.12-0.46,0.31-0.6
						c0.19-0.15,0.43-0.2,0.66-0.15c2.34,0.48,4.65,1.21,6.87,2.16c4.2,1.8,7.94,4.34,11.14,7.55c0.91,0.92,1.16,2.22,0.65,3.42
						C139.98,99.6,138.89,100.31,137.63,100.31z M119.79,93.11c1.65,1.09,3.42,2.03,5.25,2.82c4.01,1.72,8.23,2.65,12.55,2.76l0,0
						c0.74,0.02,1.21-0.45,1.4-0.9c0.19-0.45,0.21-1.11-0.31-1.64c-3.05-3.06-6.63-5.49-10.63-7.21c-1.83-0.79-3.74-1.42-5.66-1.87
						C122.11,89.3,121.21,91.39,119.79,93.11z"/>
				</g>
				<g>
					<path class="st6" d="M121.67,86.23c-0.19,0-0.37-0.06-0.51-0.18c-0.18-0.15-0.29-0.37-0.3-0.61c-0.02-1.24-0.27-2.45-0.73-3.61
						c-0.46-1.16-1.12-2.21-1.95-3.12c-0.16-0.17-0.24-0.41-0.21-0.65c0.03-0.24,0.16-0.45,0.36-0.58c1.99-1.31,4.14-2.43,6.39-3.33
						c4.22-1.68,8.65-2.54,13.15-2.54c0.02,0,0.04,0,0.07,0c1.29,0,2.39,0.75,2.87,1.96c0.48,1.21,0.2,2.51-0.74,3.4l0,0
						c-3.28,3.12-7.09,5.56-11.34,7.25c-2.24,0.89-4.57,1.56-6.92,1.98C121.76,86.22,121.72,86.23,121.67,86.23z M119.99,78.34
						c0.68,0.87,1.23,1.84,1.65,2.88c0.42,1.04,0.68,2.12,0.79,3.22c1.94-0.4,3.85-0.98,5.71-1.72c4.05-1.61,7.69-3.94,10.82-6.92
						c0,0,0,0,0,0c0.53-0.51,0.53-1.17,0.35-1.63c-0.18-0.45-0.64-0.94-1.37-0.94c-0.02,0-0.04,0-0.06,0
						c-4.3,0-8.52,0.81-12.55,2.42C123.46,76.4,121.67,77.3,119.99,78.34z"/>
				</g>
				<g>
					<path class="st6" d="M121.67,86.23c-0.19,0-0.37-0.06-0.51-0.18c-0.18-0.15-0.29-0.37-0.3-0.61c-0.02-1.24-0.27-2.45-0.73-3.61
						c-0.46-1.16-1.12-2.21-1.95-3.12c-0.16-0.17-0.24-0.41-0.21-0.65c0.03-0.24,0.16-0.45,0.36-0.58c1.99-1.31,4.14-2.43,6.39-3.33
						c4.22-1.68,8.65-2.54,13.15-2.54c0.02,0,0.04,0,0.07,0c1.29,0,2.39,0.75,2.87,1.96c0.48,1.21,0.2,2.51-0.74,3.4l0,0
						c-3.28,3.12-7.09,5.56-11.34,7.25c-2.24,0.89-4.57,1.56-6.92,1.98C121.76,86.22,121.72,86.23,121.67,86.23z M119.99,78.34
						c0.68,0.87,1.23,1.84,1.65,2.88c0.42,1.04,0.68,2.12,0.79,3.22c1.94-0.4,3.85-0.98,5.71-1.72c4.05-1.61,7.69-3.94,10.82-6.92
						c0,0,0,0,0,0c0.53-0.51,0.53-1.17,0.35-1.63c-0.18-0.45-0.64-0.94-1.37-0.94c-0.02,0-0.04,0-0.06,0
						c-4.3,0-8.52,0.81-12.55,2.42C123.46,76.4,121.67,77.3,119.99,78.34z"/>
				</g>
				<g>
					<path class="st6" d="M118.31,78.49c-0.21,0-0.41-0.08-0.56-0.23c-1.8-1.73-4.16-2.75-6.65-2.86c-0.24-0.01-0.46-0.12-0.6-0.31
						c-0.15-0.19-0.2-0.43-0.15-0.66c0.48-2.34,1.21-4.65,2.16-6.87c1.8-4.2,4.34-7.94,7.55-11.14c0.92-0.91,2.22-1.16,3.42-0.65
						c1.19,0.51,1.91,1.63,1.88,2.93c-0.11,4.53-1.08,8.95-2.89,13.15c-0.95,2.22-2.13,4.33-3.49,6.3
						c-0.14,0.19-0.35,0.32-0.59,0.34C118.36,78.49,118.33,78.49,118.31,78.49z M112.12,73.86c2.22,0.28,4.31,1.18,6.04,2.59
						c1.09-1.66,2.03-3.42,2.82-5.25c1.72-4.01,2.65-8.23,2.76-12.55l0,0c0.02-0.74-0.45-1.21-0.9-1.4
						c-0.45-0.19-1.11-0.21-1.64,0.31c-3.06,3.05-5.49,6.63-7.21,10.63C113.2,70.03,112.57,71.93,112.12,73.86z"/>
				</g>
				<g>
					<path class="st6" d="M118.31,78.49c-0.21,0-0.41-0.08-0.56-0.23c-1.8-1.73-4.16-2.75-6.65-2.86c-0.24-0.01-0.46-0.12-0.6-0.31
						c-0.15-0.19-0.2-0.43-0.15-0.66c0.48-2.34,1.21-4.65,2.16-6.87c1.8-4.2,4.34-7.94,7.55-11.14c0.92-0.91,2.22-1.16,3.42-0.65
						c1.19,0.51,1.91,1.63,1.88,2.93c-0.11,4.53-1.08,8.95-2.89,13.15c-0.95,2.22-2.13,4.33-3.49,6.3
						c-0.14,0.19-0.35,0.32-0.59,0.34C118.36,78.49,118.33,78.49,118.31,78.49z M112.12,73.86c2.22,0.28,4.31,1.18,6.04,2.59
						c1.09-1.66,2.03-3.42,2.82-5.25c1.72-4.01,2.65-8.23,2.76-12.55l0,0c0.02-0.74-0.45-1.21-0.9-1.4
						c-0.45-0.19-1.11-0.21-1.64,0.31c-3.06,3.05-5.49,6.63-7.21,10.63C113.2,70.03,112.57,71.93,112.12,73.86z"/>
				</g>
			</g>
		</g>
	</g>
</g>
<g id="ProfilePic">
</g>
</svg>
